<?xml version="1.0" encoding="utf-8"?>
<!-- Generator: Adobe Illustrator 28.0.0, SVG Export Plug-In . SVG Version: 6.00 Build 0)  -->
<svg version="1.1" id="Layer_1" xmlns="http://www.w3.org/2000/svg" xmlns:xlink="http://www.w3.org/1999/xlink" x="0px" y="0px"
	 viewBox="0 0 984.6 256.7" style="enable-background:new 0 0 984.6 256.7;" xml:space="preserve">
<style type="text/css">
	.st0{opacity:0.88;}
	.st1{fill:url(#SVGID_1_);}
	.st2{fill:url(#SVGID_00000183224271082287329760000009631039456645841850_);}
	.st3{fill:url(#SVGID_00000044881121345907839440000001263458788098764934_);}
</style>
<g>
	<g>
		<g id="Layer_1-2_00000026143383863725466260000017819244155107295617_">
			<g className="st0">
				<g>
					
						<linearGradient id="SVGID_1_" gradientUnits="userSpaceOnUse" x1="829.6303" y1="-9151.5342" x2="829.6303" y2="-9029.5693" gradientTransform="matrix(1 0 0 1 0 9286.4004)">
						<stop  offset="0" style="stop-color:#3480B9"/>
						<stop  offset="0.48" style="stop-color:#5BC8EB"/>
						<stop  offset="1" style="stop-color:#42A06A"/>
					</linearGradient>
					<path className="st1" d="M881.1,256.7c-3.4,0-6.9-2.1-8.6-5.5l-42.7-83.9L795.1,236h37.5c5.5,0,10,4.8,10,10.3
						c0,5.5-4.5,10.3-10,10.3h-54c-3.4,0-6.5-2.1-8.6-4.8c-1.7-3.1-2.1-6.9-0.3-10.3l51.3-101.1c1.7-3.4,5.2-5.5,8.6-5.5l0,0
						c3.8,0,7.2,2.1,8.6,5.5l51.6,101.1c2.4,4.8,0.7,11.4-4.1,14.1C884.2,256.3,882.5,256.7,881.1,256.7L881.1,256.7z"/>
				</g>
			</g>
		</g>
		
			<linearGradient id="SVGID_00000114051527359806740840000015678768411277549755_" gradientUnits="userSpaceOnUse" x1="-111.5782" y1="-2.8234" x2="192.0765" y2="-289.8693" gradientTransform="matrix(1.0043 5.902263e-02 0 -1 3.2369 -37.2096)">
			<stop  offset="0.3775" style="stop-color:#3480B9"/>
			<stop  offset="0.523" style="stop-color:#5BC8EB"/>
			<stop  offset="0.8004" style="stop-color:#42A06A"/>
		</linearGradient>
		<path style="fill:url(#SVGID_00000114051527359806740840000015678768411277549755_);" d="M60.5,256.7c-12.4,0-25.5-5.8-37.2-15.8
			C5.5,224.7-3.1,200.6,1,179.9c0,0,0-0.3,0-0.7L34.7,43c3.4-15.8,14.4-26.8,28.9-29.9c15.8-3.1,33.7,3.4,48.2,17.5l87,86.4
			c6.9,6.9,8.6,17.5,3.4,24.1c-5.2,6.2-14.8,5.8-21.7-1L93.2,53.7c-5.5-5.5-12.4-8.3-18.6-6.9c-3.1,0.7-8.6,2.8-10,10
			c0,0,0,0.3,0,0.7L31,193.7c-1.7,9.3,3.4,17.9,8.9,23.1c5.5,4.8,14.1,8.9,21.3,4.8l33.7-19.3c6.9-3.8,16.9-0.3,21.7,8.3
			s3.4,18.6-3.4,22.4l-33.7,19.3C74.3,254.9,67.4,256.7,60.5,256.7L60.5,256.7L60.5,256.7z"/>
		
			<linearGradient id="SVGID_00000169517942573584077620000012569561228517365179_" gradientUnits="userSpaceOnUse" x1="27.8514" y1="-29.3893" x2="350.9623" y2="-334.8269" gradientTransform="matrix(1 0 0 -1 0 -84.0921)">
			<stop  offset="0.347" style="stop-color:#3480B9"/>
			<stop  offset="0.523" style="stop-color:#5BC8EB"/>
			<stop  offset="0.7867" style="stop-color:#42A06A"/>
		</linearGradient>
		<path style="fill:url(#SVGID_00000169517942573584077620000012569561228517365179_);" d="M216,255.3c2.8,0,5.8,0,8.6-0.7
			c14.8-2.8,25.8-14.1,29.2-29.9l32-147.6c4.5-20.6-4.5-44.7-22.4-60.9s-39.9-20.6-56.8-11L173,24.4c-6.9,3.8-8.6,14.1-3.4,22.4
			c4.8,8.6,14.8,12,21.7,8.3L225,35.8c7.2-4.1,15.8-0.3,21.3,4.8s11,13.8,8.9,23.1l-32,147.6c-1.4,7.2-6.9,9.6-10,10
			c-6.2,1.4-13.1-1.4-18.6-6.9l-87-86c-6.9-6.9-16.9-7.2-21.7-1c-5.2,6.2-3.4,16.9,3.4,24.1l87,86.4
			C188.2,248.7,202.3,255.3,216,255.3L216,255.3L216,255.3z"/>
	</g>
	<g>
		<g>
			<polygon points="423.2,95.6 353,0 343.3,0 343.3,119.4 355.4,119.4 355.4,24.1 425.9,119.4 435.6,119.4 435.6,0 423.2,0 			"/>
			<path d="M511.6,0h-10.7l-51.6,119.4h13.1L476.1,87H536l13.8,32.3h13.1l-51.3-119V0z M531.2,75.3h-49.9l24.8-58.5L531.2,75.3z"/>
			<polygon points="553.9,12 592.4,12 592.4,119.4 604.5,119.4 604.5,12 643.4,12 643.4,0 553.9,0 			"/>
			<polygon points="738.7,53 670.9,53 670.9,0 658.5,0 658.5,119.4 670.9,119.4 670.9,64.7 738.7,64.7 738.7,119.4 750.7,119.4 
				750.7,0 738.7,0 			"/>
			<path d="M826.7,0h-10.7l-51.6,119.4h13.1L791.3,87h60.2l13.8,32.3h13.1l-51.3-119L826.7,0z M846.7,75.3h-50.2l24.8-58.5
				L846.7,75.3z"/>
			<polygon points="972.6,0 972.6,95.6 902.4,0.3 902.4,0 892.4,0 892.4,119.4 904.5,119.4 904.5,24.1 974.7,119 975,119.4 
				984.6,119.4 984.6,0 			"/>
		</g>
		<g>
			<path d="M345.8,138.7h47.8c35.4,0,59.5,23.1,59.5,58.1s-24.1,58.1-59.5,58.1h-47.8L345.8,138.7L345.8,138.7z M392.5,236.7
				c24.1,0,39.9-15.8,39.9-39.9s-15.8-39.9-39.9-39.9h-26.5v79.8H392.5L392.5,236.7z"/>
			<path d="M474.4,138.7h20.3v116.3h-20.3V138.7z"/>
			<path d="M598.6,195.4h19.3v46.4c-11.4,9.6-27.2,14.8-42.7,14.8c-33.7,0-58.8-25.1-58.8-59.9s25.1-59.9,59.2-59.9
				c18.2,0,33.7,6.5,43.7,18.9l-12.7,13.4c-8.6-9.3-18.2-13.4-30.3-13.4c-23.1,0-39.6,16.9-39.6,40.9s16.5,40.9,39.6,40.9
				c7.9,0,15.5-1.7,22.4-6.2V195.4L598.6,195.4L598.6,195.4z"/>
			<path d="M644.4,138.7h20.3v116.3h-20.3V138.7z"/>
			<path d="M716.3,156.9h-36.1v-18.2h92.5v18.2h-36.1v98.1h-20.3V156.9L716.3,156.9L716.3,156.9z"/>
			<path d="M907.2,138.7h20.3v98.1h57.1v18.2h-77.4V138.7L907.2,138.7L907.2,138.7z"/>
		</g>
	</g>
</g>
</svg>
